<?xml version="1.0" encoding="UTF-8"?>
<!DOCTYPE svg PUBLIC "-//W3C//DTD SVG 1.1//EN" "http://www.w3.org/Graphics/SVG/1.1/DTD/svg11.dtd">
<svg xmlns="http://www.w3.org/2000/svg" xmlns:xlink="http://www.w3.org/1999/xlink" version="1.1" width="306px" height="547px" viewBox="-0.5 -0.5 306 547"><defs/><g><g><path d="M 176.5 41 L 176.5 54.63" fill="none" stroke="rgb(0, 0, 0)" stroke-miterlimit="10" pointer-events="stroke"/><path d="M 176.5 59.88 L 173 52.88 L 176.5 54.63 L 180 52.88 Z" fill="rgb(0, 0, 0)" stroke="rgb(0, 0, 0)" stroke-miterlimit="10" pointer-events="all"/></g><g><ellipse cx="176.5" cy="21" rx="35" ry="20" fill="none" stroke="#00007d" stroke-width="3" pointer-events="all"/></g><g><g fill="#000000" font-family="Helvetica" font-weight="bold" text-anchor="middle" font-size="12px"><text x="176" y="25.5">Start</text></g></g><g><path d="M 176.5 111 L 176.5 124.63" fill="none" stroke="rgb(0, 0, 0)" stroke-miterlimit="10" pointer-events="stroke"/><path d="M 176.5 129.88 L 173 122.88 L 176.5 124.63 L 180 122.88 Z" fill="rgb(0, 0, 0)" stroke="rgb(0, 0, 0)" stroke-miterlimit="10" pointer-events="all"/></g><g><rect x="136" y="61" width="81" height="50" rx="7.5" ry="7.5" fill="none" stroke="#5e79ff" stroke-width="3" pointer-events="all"/></g><g><g fill="#1A1A1A" font-family="Helvetica" font-weight="bold" text-anchor="middle" font-size="12px"><text x="176" y="90.5">Camera</text></g></g><g><path d="M 126 176 L 95 176 L 95 86 L 129.63 86" fill="none" stroke="rgb(0, 0, 0)" stroke-miterlimit="10" pointer-events="stroke"/><path d="M 134.88 86 L 127.88 89.5 L 129.63 86 L 127.88 82.5 Z" fill="rgb(0, 0, 0)" stroke="rgb(0, 0, 0)" stroke-miterlimit="10" pointer-events="all"/></g><g><path d="M 176.5 221 L 175 221 L 174.99 239.63" fill="none" stroke="rgb(0, 0, 0)" stroke-miterlimit="10" pointer-events="stroke"/><path d="M 174.99 244.88 L 171.49 237.88 L 174.99 239.63 L 178.49 237.88 Z" fill="rgb(0, 0, 0)" stroke="rgb(0, 0, 0)" stroke-miterlimit="10" pointer-events="all"/></g><g><path d="M 176.5 131 L 227 176 L 176.5 221 L 126 176 Z" fill="none" stroke="#5e79ff" stroke-width="3" stroke-miterlimit="10" pointer-events="all"/></g><g><rect x="0" y="101" width="100" height="40" fill="none" stroke="none" pointer-events="all"/></g><g><g fill="#1A1A1A" font-family="Helvetica" font-weight="bold" text-anchor="middle" font-size="12px"><text x="49.5" y="118.5">Nessun </text><text x="49.5" y="132.5">riconoscimento</text></g></g><g><rect x="245.75" y="516" width="60" height="30" fill="none" stroke="none" pointer-events="all"/></g><g><g fill="#1A1A1A" font-family="Helvetica" font-weight="bold" text-anchor="middle" font-size="12px"><text x="275.25" y="535.5">Throttle</text></g></g><g><rect x="49.25" y="516" width="100" height="30" fill="none" stroke="none" pointer-events="all"/></g><g><g fill="#1A1A1A" font-family="Helvetica" font-weight="bold" text-anchor="middle" font-size="12px"><text x="98.75" y="535.5">Steering angle</text></g></g><g><rect x="190" y="201" width="100" height="40" fill="none" stroke="none" pointer-events="all"/></g><g><g fill="#1A1A1A" font-family="Helvetica" font-weight="bold" text-anchor="middle" font-size="12px"><text x="239.5" y="218.5">Avvenuto </text><text x="239.5" y="232.5">riconoscimento</text></g></g><g><rect x="131.5" y="241" width="90" height="60" fill="none" stroke="none" pointer-events="all"/></g><g><g fill="#1A1A1A" font-family="Helvetica" font-weight="bold" text-anchor="middle" font-size="12px"><text x="176" y="261.5">Definizione </text><text x="176" y="275.5">retta in </text><text x="176" y="289.5">terna fissa</text></g></g><g><path d="M 177.5 296 L 177.5 316 L 177.5 311 L 177.5 324.63" fill="none" stroke="rgb(0, 0, 0)" stroke-miterlimit="10" pointer-events="stroke"/><path d="M 177.5 329.88 L 174 322.88 L 177.5 324.63 L 181 322.88 Z" fill="rgb(0, 0, 0)" stroke="rgb(0, 0, 0)" stroke-miterlimit="10" pointer-events="all"/></g><g><rect x="137" y="246" width="81" height="50" rx="7.5" ry="7.5" fill="none" stroke="#5e79ff" stroke-width="3" pointer-events="all"/></g><g><path d="M 180.25 481 L 180.3 496.5 L 98 496.5 L 98 509.63" fill="none" stroke="rgb(0, 0, 0)" stroke-miterlimit="10" pointer-events="stroke"/><path d="M 98 514.88 L 94.5 507.88 L 98 509.63 L 101.5 507.88 Z" fill="rgb(0, 0, 0)" stroke="rgb(0, 0, 0)" stroke-miterlimit="10" pointer-events="all"/></g><g><path d="M 180.3 481 L 180.3 496.5 L 276 496.5 L 276 509.63" fill="none" stroke="rgb(0, 0, 0)" stroke-miterlimit="10" pointer-events="stroke"/><path d="M 276 514.88 L 272.5 507.88 L 276 509.63 L 279.5 507.88 Z" fill="rgb(0, 0, 0)" stroke="rgb(0, 0, 0)" stroke-miterlimit="10" pointer-events="all"/></g><g><rect x="139.75" y="431" width="81" height="50" rx="7.5" ry="7.5" fill="none" stroke="#5e79ff" stroke-width="3" pointer-events="all"/></g><g><rect x="135.25" y="436" width="90" height="40" fill="none" stroke="none" pointer-events="all"/></g><g><g fill="#1A1A1A" font-family="Helvetica" font-weight="bold" text-anchor="middle" font-size="12px"><text x="179.75" y="453.5">Nodo </text><text x="179.75" y="467.5">convertitore</text></g></g><g><rect x="122.5" y="161" width="110" height="40" fill="none" stroke="none" pointer-events="all"/></g><g><g fill="#1A1A1A" font-family="Helvetica" font-weight="bold" text-anchor="middle" font-size="12px"><text x="177" y="178.5">Riconoscimento </text><text x="177" y="192.5">ArUco</text></g></g><g><rect x="121.43" y="296" width="50" height="30" fill="none" stroke="none" pointer-events="all"/></g><g><g fill="rgb(0, 0, 0)" font-family="Helvetica" font-weight="bold" text-anchor="middle" font-size="12px"><text x="145.93" y="315.5">LiDar</text></g></g><g><path d="M 177.5 397.5 L 180.3 397.5 L 180.26 424.63" fill="none" stroke="rgb(0, 0, 0)" stroke-miterlimit="10" pointer-events="stroke"/><path d="M 180.25 429.88 L 176.76 422.88 L 180.26 424.63 L 183.76 422.89 Z" fill="rgb(0, 0, 0)" stroke="rgb(0, 0, 0)" stroke-miterlimit="10" pointer-events="all"/></g><g><rect x="121.43" y="331" width="112.13" height="66.5" rx="9.97" ry="9.97" fill="none" stroke="#5e79ff" stroke-width="3" pointer-events="all"/></g><g><g fill="#1A1A1A" font-family="Helvetica" font-weight="bold" text-anchor="middle" font-size="12px"><text x="177" y="347.75">LOS APF</text><text x="177" y="361.75">Scelta del goal e</text><text x="177" y="375.75"> calcolo v e ω</text><text x="177" y="389.75">desiderate</text></g></g></g></svg>